<?xml version="1.0" encoding="UTF-8"?>
<svg xmlns="http://www.w3.org/2000/svg" xmlns:xlink="http://www.w3.org/1999/xlink" width="220px" height="35px" viewBox="0 0 218 35" version="1.1">
<defs>
<clipPath id="clip1">
  <path d="M 0.460938 0 L 42 0 L 42 35 L 0.460938 35 Z M 0.460938 0 "/>
</clipPath>
<clipPath id="clip2">
  <path d="M 52.320312 0 L 217.890625 0 L 217.890625 35 L 52.320312 35 Z M 52.320312 0 "/>
</clipPath>
</defs>
<g id="surface1">
<g clip-path="url(#clip1)" clip-rule="nonzero">
<path style=" stroke:none;fill-rule:nonzero;fill:rgb(98.823529%,36.078431%,61.176471%);fill-opacity:1;" d="M 25.796875 0.582031 C 18.800781 0.582031 11.496094 2.164062 4.128906 4.226562 C 3.191406 4.414062 2.277344 5.03125 1.792969 5.789062 C 1.351562 6.511719 1.191406 7.230469 1.054688 7.988281 C 0.335938 12.019531 0.421875 15.984375 0.574219 20.371094 C 0.609375 21.378906 0.75 22.570312 1.21875 23.292969 C 1.703125 24.023438 2.539062 24.488281 3.542969 24.636719 C 4.8125 24.824219 6.089844 24.984375 7.375 25.117188 L 7.089844 33.046875 C 7.050781 33.679688 7.351562 34.195312 7.730469 34.503906 C 8.078125 34.761719 8.457031 34.878906 8.84375 34.902344 C 9.621094 34.964844 10.535156 34.628906 10.992188 33.757812 C 12.976562 29.914062 14.234375 28.214844 16.714844 25.652344 C 23.203125 25.824219 28.863281 25.453125 35.273438 24.980469 C 37.535156 24.917969 39.085938 23.058594 39.5 21.566406 C 40.734375 17.710938 40.925781 12.949219 41.058594 8.140625 C 41.113281 6.230469 40.449219 4.359375 39.292969 3.367188 C 38.179688 2.460938 36.839844 2.136719 35.605469 1.804688 C 32.199219 1.023438 28.789062 0.609375 25.796875 0.582031 Z M 35.117188 3.601562 C 36.351562 3.9375 37.441406 4.261719 38.121094 4.8125 C 39.261719 6.039062 39.222656 6.847656 39.207031 8.167969 C 39.074219 12.835938 38.855469 17.363281 37.804688 20.792969 C 37.355469 22.078125 36.566406 22.984375 35.085938 23.128906 C 28.550781 23.613281 22.890625 23.988281 16.320312 23.800781 C 16.066406 23.792969 15.816406 23.890625 15.632812 24.078125 C 12.875 26.875 11.46875 28.824219 9.363281 32.890625 C 9.316406 32.984375 9.207031 33.046875 9.078125 33.050781 C 8.988281 33.046875 8.953125 32.976562 8.945312 32.921875 L 9.230469 24.320312 C 9.253906 23.859375 8.875 23.417969 8.40625 23.363281 C 6.875 23.21875 5.347656 23.03125 3.832031 22.796875 C 3.167969 22.695312 2.921875 22.519531 2.746094 22.246094 C 2.433594 21.492188 2.441406 21.03125 2.414062 20.308594 C 2.269531 15.957031 2.195312 12.152344 2.859375 8.367188 C 2.917969 7.816406 3.132812 7.242188 3.355469 6.761719 C 3.71875 6.179688 4.28125 6.101562 4.835938 5.945312 C 12.046875 3.941406 19.097656 2.445312 25.738281 2.445312 C 28.992188 2.558594 32.410156 2.886719 35.117188 3.601562 Z M 10.222656 10.972656 C 9.230469 12.167969 9.332031 13.792969 10.097656 14.878906 C 10.503906 15.449219 11.121094 15.910156 11.882812 16.011719 C 12.875 16.09375 13.5 15.695312 14.175781 15.226562 C 15.402344 14.160156 15.527344 12.292969 14.597656 10.9375 C 14.117188 10.253906 13.359375 9.832031 12.585938 9.808594 C 11.523438 9.820312 10.804688 10.292969 10.222656 10.972656 Z M 20.972656 9.992188 C 19.976562 10.03125 19.171875 10.714844 18.6875 11.460938 C 18.132812 12.308594 17.808594 13.375 18.257812 14.417969 C 19.125 16.429688 22.128906 16.402344 23.332031 14.359375 C 23.882812 13.421875 23.734375 12.355469 23.332031 11.574219 C 22.917969 10.800781 22.300781 10.167969 21.398438 10.019531 C 21.253906 10.003906 21.113281 9.992188 20.972656 9.992188 Z M 29.683594 10.179688 C 29.378906 10.175781 29.0625 10.207031 28.765625 10.289062 C 27.578125 10.605469 26.5625 11.84375 26.714844 13.414062 C 26.796875 14.214844 27.160156 14.980469 27.8125 15.515625 C 28.46875 16.054688 29.425781 16.292969 30.421875 16.085938 C 31.574219 15.855469 32.285156 14.914062 32.53125 14.011719 C 32.761719 13.113281 32.710938 12.195312 32.148438 11.445312 C 31.570312 10.667969 30.65625 10.203125 29.691406 10.179688 Z M 12.507812 11.667969 C 12.722656 11.667969 12.902344 11.734375 13.085938 12.003906 C 13.484375 12.582031 13.375 13.472656 12.964844 13.824219 C 12.558594 14.179688 12.308594 14.207031 12.132812 14.183594 C 11.949219 14.160156 11.773438 14.042969 11.617188 13.8125 C 11.304688 13.375 11.210938 12.667969 11.621094 12.164062 C 11.835938 11.878906 12.226562 11.695312 12.507812 11.667969 Z M 21.097656 11.867188 C 21.128906 11.878906 21.515625 12.097656 21.703125 12.445312 C 21.890625 12.800781 21.925781 13.121094 21.742188 13.414062 C 21.226562 14.304688 20.113281 14.070312 19.945312 13.675781 C 19.882812 13.535156 19.925781 12.9375 20.234375 12.480469 C 20.535156 12.015625 20.914062 11.84375 21.097656 11.867188 Z M 30.660156 12.550781 C 30.71875 12.625 30.859375 13.128906 30.753906 13.535156 C 30.644531 13.941406 30.46875 14.183594 30.046875 14.277344 C 29.503906 14.390625 29.191406 14.277344 28.964844 14.082031 C 28.738281 13.894531 28.578125 13.582031 28.542969 13.246094 C 28.46875 12.402344 28.765625 12.207031 29.242188 12.082031 C 29.792969 11.945312 30.417969 12.183594 30.660156 12.550781 Z M 30.660156 12.550781 "/>
</g>
<g clip-path="url(#clip2)" clip-rule="nonzero">
<path style=" stroke:none;fill-rule:nonzero;fill:rgb(77.254902%,89.019608%,96.470588%);fill-opacity:1;" d="M 52.648438 4.335938 C 52.671875 4.101562 52.757812 3.886719 52.917969 3.695312 C 53.070312 3.507812 53.308594 3.40625 53.546875 3.414062 L 59.734375 3.414062 C 59.945312 3.414062 60.15625 3.503906 60.375 3.679688 C 60.589844 3.828125 60.714844 4.074219 60.710938 4.335938 L 60.710938 14.265625 L 71.058594 14.265625 L 71.058594 4.335938 C 71.058594 4.089844 71.144531 3.875 71.316406 3.6875 C 71.496094 3.503906 71.71875 3.414062 71.992188 3.414062 L 78.101562 3.414062 C 78.371094 3.414062 78.617188 3.484375 78.820312 3.625 C 79.035156 3.757812 79.136719 3.988281 79.136719 4.296875 L 79.136719 33.59375 C 79.136719 33.902344 79.046875 34.128906 78.867188 34.28125 C 78.683594 34.4375 78.453125 34.511719 78.15625 34.511719 L 71.992188 34.511719 C 71.71875 34.511719 71.496094 34.4375 71.316406 34.28125 C 71.144531 34.128906 71.058594 33.902344 71.058594 33.59375 L 71.058594 21.699219 L 60.710938 21.699219 L 60.710938 33.59375 C 60.710938 33.882812 60.621094 34.105469 60.433594 34.277344 C 60.238281 34.4375 59.988281 34.511719 59.667969 34.511719 L 53.546875 34.511719 C 52.96875 34.511719 52.671875 34.238281 52.648438 33.695312 Z M 109.617188 34.15625 C 109.4375 34.3125 109.242188 34.40625 109.046875 34.449219 C 108.859375 34.488281 108.664062 34.511719 108.472656 34.511719 L 105.332031 34.511719 C 105.078125 34.511719 104.863281 34.46875 104.679688 34.378906 C 104.503906 34.289062 104.351562 34.164062 104.226562 34.007812 C 104.09375 33.847656 103.992188 33.679688 103.914062 33.484375 C 103.828125 33.289062 103.753906 33.085938 103.703125 32.882812 L 103.0625 30.199219 C 102.851562 30.628906 102.550781 31.121094 102.152344 31.671875 C 101.726562 32.261719 101.214844 32.785156 100.644531 33.226562 C 100.035156 33.707031 99.304688 34.117188 98.457031 34.441406 C 97.613281 34.765625 96.636719 34.929688 95.539062 34.929688 C 93.957031 34.929688 92.519531 34.625 91.230469 34.007812 C 89.964844 33.410156 88.839844 32.5625 87.933594 31.496094 C 87.023438 30.4375 86.320312 29.199219 85.824219 27.777344 C 85.320312 26.363281 85.070312 24.847656 85.070312 23.242188 L 85.070312 9.53125 C 85.070312 9 85.191406 8.601562 85.417969 8.328125 C 85.644531 8.050781 86.007812 7.917969 86.507812 7.917969 L 91.316406 7.917969 C 91.910156 7.917969 92.320312 8.015625 92.542969 8.226562 C 92.761719 8.425781 92.882812 8.824219 92.882812 9.40625 L 92.882812 23.035156 C 92.882812 23.640625 93.011719 24.203125 93.28125 24.746094 C 93.558594 25.277344 93.910156 25.761719 94.359375 26.164062 C 94.800781 26.574219 95.308594 26.90625 95.863281 27.140625 C 96.429688 27.371094 97.003906 27.496094 97.582031 27.496094 C 98.082031 27.496094 98.597656 27.371094 99.140625 27.140625 C 99.679688 26.90625 100.171875 26.574219 100.613281 26.1875 C 101.0625 25.792969 101.4375 25.320312 101.726562 24.785156 C 102.015625 24.246094 102.160156 23.675781 102.160156 23.078125 L 102.160156 9.46875 C 102.160156 9.226562 102.210938 8.996094 102.300781 8.75 C 102.390625 8.515625 102.527344 8.335938 102.710938 8.207031 C 102.886719 8.101562 103.050781 8.019531 103.222656 7.980469 C 103.378906 7.941406 103.554688 7.917969 103.765625 7.917969 L 108.472656 7.917969 C 109.066406 7.917969 109.5 8.066406 109.765625 8.355469 C 110.027344 8.648438 110.15625 9.046875 110.15625 9.53125 L 110.15625 32.960938 C 110.15625 33.226562 110.101562 33.46875 109.988281 33.695312 C 109.863281 33.917969 109.703125 34.09375 109.492188 34.21875 Z M 133.785156 31.269531 C 133.417969 31.644531 133.003906 32.042969 132.554688 32.480469 C 132.09375 32.914062 131.605469 33.3125 131.0625 33.695312 C 130.515625 34.070312 129.925781 34.382812 129.3125 34.628906 C 128.671875 34.878906 127.976562 35.003906 127.292969 34.996094 C 125.40625 34.996094 123.664062 34.640625 122.074219 33.929688 C 120.53125 33.238281 119.132812 32.25 117.976562 31.007812 C 116.828125 29.769531 115.9375 28.3125 115.289062 26.636719 C 114.648438 24.96875 114.320312 23.164062 114.320312 21.238281 C 114.320312 19.292969 114.648438 17.488281 115.289062 15.824219 C 115.9375 14.148438 116.828125 12.703125 117.976562 11.46875 C 119.128906 10.226562 120.53125 9.226562 122.074219 8.554688 C 123.664062 7.851562 125.40625 7.496094 127.292969 7.496094 C 128.058594 7.496094 128.757812 7.609375 129.386719 7.832031 C 130 8.042969 130.578125 8.335938 131.117188 8.6875 C 131.632812 9.046875 132.113281 9.4375 132.554688 9.878906 C 132.984375 10.3125 133.398438 10.742188 133.785156 11.160156 L 133.785156 1.59375 C 133.785156 1.144531 133.929688 0.769531 134.195312 0.460938 C 134.460938 0.152344 134.871094 0 135.410156 0 L 140.097656 0 C 140.28125 0 140.472656 0.0390625 140.671875 0.121094 C 140.871094 0.195312 141.054688 0.300781 141.222656 0.445312 C 141.386719 0.582031 141.523438 0.746094 141.625 0.945312 C 141.726562 1.140625 141.785156 1.351562 141.785156 1.59375 L 141.785156 32.898438 C 141.785156 33.976562 141.222656 34.511719 140.097656 34.511719 L 136.015625 34.511719 C 135.746094 34.511719 135.523438 34.476562 135.371094 34.40625 C 135.214844 34.339844 135.085938 34.230469 134.984375 34.101562 C 134.871094 33.945312 134.773438 33.78125 134.707031 33.597656 C 134.609375 33.363281 134.507812 33.132812 134.394531 32.898438 Z M 121.820312 21.238281 C 121.808594 22.113281 121.949219 22.984375 122.246094 23.824219 C 122.523438 24.625 122.929688 25.320312 123.464844 25.902344 C 124 26.496094 124.644531 26.972656 125.371094 27.296875 C 126.109375 27.640625 126.929688 27.8125 127.835938 27.8125 C 128.726562 27.8125 129.5625 27.652344 130.339844 27.332031 C 131.105469 27.019531 131.800781 26.570312 132.394531 26 C 132.980469 25.425781 133.457031 24.75 133.804688 24 C 134.15625 23.230469 134.355469 22.40625 134.394531 21.527344 L 134.394531 21.238281 C 134.394531 20.359375 134.230469 19.488281 133.894531 18.683594 C 133.574219 17.886719 133.097656 17.164062 132.507812 16.546875 C 131.917969 15.925781 131.203125 15.4375 130.425781 15.089844 C 129.609375 14.726562 128.726562 14.550781 127.835938 14.554688 C 126.929688 14.554688 126.109375 14.738281 125.371094 15.089844 C 124.625 15.445312 123.988281 15.925781 123.464844 16.546875 C 122.925781 17.167969 122.511719 17.898438 122.246094 18.683594 C 121.960938 19.503906 121.8125 20.367188 121.820312 21.238281 Z M 165.957031 31.269531 C 165.578125 31.644531 165.164062 32.042969 164.714844 32.480469 C 164.265625 32.914062 163.773438 33.3125 163.234375 33.695312 C 162.6875 34.070312 162.097656 34.382812 161.480469 34.628906 C 160.835938 34.878906 160.152344 35.003906 159.464844 34.996094 C 157.566406 34.996094 155.835938 34.640625 154.246094 33.929688 C 152.695312 33.238281 151.300781 32.25 150.140625 31.007812 C 149 29.769531 148.105469 28.3125 147.460938 26.636719 C 146.808594 24.96875 146.484375 23.164062 146.484375 21.238281 C 146.484375 19.292969 146.808594 17.488281 147.460938 15.824219 C 148.105469 14.148438 149 12.703125 150.140625 11.46875 C 151.300781 10.226562 152.695312 9.226562 154.246094 8.554688 C 155.835938 7.851562 157.566406 7.496094 159.464844 7.496094 C 160.21875 7.496094 160.917969 7.609375 161.554688 7.832031 C 162.160156 8.042969 162.738281 8.335938 163.277344 8.6875 C 163.796875 9.046875 164.285156 9.4375 164.714844 9.878906 C 165.152344 10.3125 165.566406 10.742188 165.953125 11.160156 L 165.953125 1.59375 C 165.953125 1.144531 166.089844 0.769531 166.359375 0.460938 C 166.632812 0.152344 167.035156 0 167.582031 0 L 172.265625 0 C 172.441406 0 172.632812 0.0390625 172.839844 0.121094 C 173.039062 0.195312 173.226562 0.300781 173.390625 0.445312 C 173.554688 0.582031 173.695312 0.746094 173.796875 0.945312 C 173.902344 1.140625 173.953125 1.351562 173.953125 1.59375 L 173.953125 32.898438 C 173.953125 33.976562 173.390625 34.511719 172.265625 34.511719 L 168.183594 34.511719 C 167.90625 34.511719 167.695312 34.476562 167.542969 34.40625 C 167.390625 34.339844 167.257812 34.230469 167.15625 34.101562 C 167.035156 33.945312 166.941406 33.78125 166.871094 33.597656 C 166.777344 33.363281 166.667969 33.132812 166.558594 32.898438 L 165.953125 31.269531 Z M 153.984375 21.238281 C 153.980469 22.113281 154.121094 22.984375 154.410156 23.824219 C 154.695312 24.625 155.105469 25.320312 155.632812 25.902344 C 156.160156 26.496094 156.8125 26.972656 157.535156 27.296875 C 158.28125 27.640625 159.101562 27.8125 160.003906 27.8125 C 160.886719 27.8125 161.730469 27.652344 162.507812 27.332031 C 163.273438 27.019531 163.972656 26.570312 164.566406 26 C 165.152344 25.425781 165.628906 24.75 165.964844 24 C 166.316406 23.230469 166.519531 22.40625 166.558594 21.527344 L 166.558594 21.238281 C 166.558594 20.359375 166.394531 19.488281 166.058594 18.683594 C 165.738281 17.886719 165.269531 17.164062 164.675781 16.546875 C 164.078125 15.925781 163.375 15.4375 162.597656 15.089844 C 161.773438 14.726562 160.886719 14.550781 160.003906 14.554688 C 159.101562 14.554688 158.269531 14.738281 157.535156 15.089844 C 156.789062 15.445312 156.152344 15.925781 155.632812 16.546875 C 155.09375 17.167969 154.683594 17.898438 154.410156 18.683594 C 154.121094 19.503906 153.980469 20.367188 153.984375 21.238281 Z M 179.488281 1.617188 C 179.488281 1.167969 179.59375 0.792969 179.828125 0.484375 C 180.046875 0.171875 180.421875 0.0234375 180.960938 0.0234375 L 186.066406 0.0234375 C 186.207031 0.0234375 186.351562 0.0625 186.503906 0.136719 C 186.667969 0.222656 186.816406 0.332031 186.929688 0.460938 C 187.058594 0.605469 187.171875 0.769531 187.269531 0.960938 C 187.359375 1.15625 187.402344 1.371094 187.402344 1.617188 L 187.402344 32.898438 C 187.402344 33.429688 187.253906 33.832031 186.953125 34.101562 C 186.65625 34.378906 186.265625 34.511719 185.800781 34.511719 L 180.960938 34.511719 C 180.421875 34.511719 180.046875 34.378906 179.828125 34.101562 C 179.59375 33.832031 179.488281 33.429688 179.488281 32.898438 Z M 214.554688 31.332031 C 213.34375 32.449219 211.949219 33.355469 210.425781 33.976562 C 208.886719 34.613281 207.234375 34.941406 205.574219 34.929688 C 203.675781 34.929688 201.882812 34.578125 200.179688 33.882812 C 198.535156 33.210938 197.015625 32.226562 195.730469 30.984375 C 194.445312 29.742188 193.414062 28.253906 192.691406 26.621094 C 191.9375 24.945312 191.5625 23.121094 191.5625 21.144531 C 191.5625 19.921875 191.714844 18.730469 192.011719 17.578125 C 192.304688 16.457031 192.730469 15.371094 193.28125 14.34375 C 193.828125 13.339844 194.507812 12.40625 195.28125 11.570312 C 196.058594 10.734375 196.945312 10.003906 197.914062 9.40625 C 198.902344 8.796875 199.96875 8.324219 201.082031 8.003906 C 202.25 7.660156 203.460938 7.496094 204.679688 7.496094 C 205.828125 7.496094 206.945312 7.65625 208.03125 7.957031 C 209.117188 8.265625 210.132812 8.699219 211.085938 9.257812 C 212.039062 9.816406 212.902344 10.488281 213.695312 11.273438 C 214.472656 12.035156 215.160156 12.898438 215.742188 13.832031 C 216.308594 14.765625 216.746094 15.761719 217.058594 16.804688 C 217.371094 17.859375 217.527344 18.945312 217.527344 20.0625 C 217.527344 20.785156 217.511719 21.386719 217.496094 21.839844 C 217.472656 22.300781 217.371094 22.667969 217.175781 22.941406 C 216.976562 23.21875 216.660156 23.402344 216.199219 23.511719 C 215.75 23.613281 215.085938 23.667969 214.21875 23.667969 L 199.230469 23.667969 C 199.367188 24.558594 199.652344 25.304688 200.070312 25.902344 C 200.464844 26.472656 200.964844 26.96875 201.535156 27.339844 C 202.09375 27.691406 202.683594 27.953125 203.308594 28.101562 C 203.882812 28.25 204.476562 28.335938 205.078125 28.335938 C 205.574219 28.335938 206.09375 28.285156 206.617188 28.179688 C 207.132812 28.078125 207.644531 27.9375 208.148438 27.753906 C 208.617188 27.59375 209.070312 27.394531 209.5 27.148438 C 209.910156 26.921875 210.246094 26.683594 210.488281 26.433594 C 210.710938 26.25 210.902344 26.113281 211.0625 26.023438 C 211.222656 25.929688 211.398438 25.878906 211.574219 25.878906 C 211.753906 25.878906 211.9375 25.953125 212.128906 26.066406 C 212.355469 26.238281 212.5625 26.414062 212.753906 26.621094 L 214.96875 29.132812 C 215.117188 29.308594 215.210938 29.480469 215.257812 29.621094 C 215.296875 29.769531 215.320312 29.925781 215.320312 30.074219 C 215.320312 30.351562 215.242188 30.597656 215.085938 30.796875 C 214.941406 30.996094 214.753906 31.175781 214.554688 31.332031 Z M 204.539062 13.886719 C 203.996094 13.886719 203.464844 13.992188 202.96875 14.207031 C 202.457031 14.429688 201.96875 14.71875 201.535156 15.085938 C 201.09375 15.445312 200.691406 15.855469 200.339844 16.316406 C 200.003906 16.746094 199.714844 17.222656 199.476562 17.722656 L 210.121094 17.722656 C 209.835938 17.191406 209.519531 16.691406 209.167969 16.207031 C 208.832031 15.757812 208.441406 15.347656 208.003906 14.992188 C 207.546875 14.640625 207.042969 14.359375 206.5 14.179688 C 205.941406 13.984375 205.285156 13.886719 204.539062 13.886719 Z M 204.539062 13.886719 "/>
</g>
</g>
</svg>
