<?xml version="1.0" encoding="UTF-8"?>
<svg xmlns="http://www.w3.org/2000/svg" xmlns:xlink="http://www.w3.org/1999/xlink" width="120px" height="20px" viewBox="0 0 123 20" version="1.1">
<g id="surface1">
<path style=" stroke:none;fill-rule:nonzero;fill:rgb(100%,32.156863%,75.686275%);fill-opacity:1;" d="M 14.332031 0.449219 C 10.375 0.449219 6.242188 1.339844 2.074219 2.5 C 1.542969 2.605469 1.027344 2.953125 0.753906 3.378906 C 0.503906 3.785156 0.414062 4.191406 0.335938 4.617188 C -0.0703125 6.886719 -0.0234375 9.117188 0.0625 11.585938 C 0.0820312 12.152344 0.164062 12.824219 0.429688 13.230469 C 0.703125 13.640625 1.175781 13.902344 1.742188 13.988281 C 2.460938 14.09375 3.183594 14.183594 3.910156 14.257812 L 3.75 18.71875 C 3.726562 19.074219 3.898438 19.367188 4.113281 19.539062 C 4.308594 19.683594 4.523438 19.75 4.742188 19.765625 C 5.183594 19.800781 5.699219 19.609375 5.957031 19.121094 C 7.082031 16.957031 7.789062 16 9.195312 14.558594 C 12.863281 14.652344 16.066406 14.445312 19.691406 14.179688 C 20.972656 14.144531 21.851562 13.097656 22.085938 12.257812 C 22.78125 10.089844 22.890625 7.410156 22.964844 4.703125 C 22.996094 3.628906 22.621094 2.574219 21.964844 2.015625 C 21.335938 1.507812 20.578125 1.324219 19.882812 1.136719 C 17.953125 0.699219 16.023438 0.464844 14.332031 0.449219 Z M 19.605469 2.148438 C 20.300781 2.335938 20.917969 2.519531 21.304688 2.832031 C 21.949219 3.519531 21.925781 3.976562 21.917969 4.71875 C 21.84375 7.34375 21.71875 9.894531 21.125 11.824219 C 20.871094 12.546875 20.425781 13.058594 19.585938 13.136719 C 15.890625 13.410156 12.6875 13.621094 8.972656 13.515625 C 8.828125 13.511719 8.6875 13.566406 8.582031 13.671875 C 7.023438 15.246094 6.226562 16.34375 5.035156 18.632812 C 5.007812 18.683594 4.949219 18.71875 4.875 18.722656 C 4.824219 18.71875 4.804688 18.679688 4.800781 18.648438 L 4.960938 13.808594 C 4.972656 13.546875 4.757812 13.300781 4.496094 13.269531 C 3.628906 13.1875 2.765625 13.082031 1.90625 12.953125 C 1.53125 12.894531 1.394531 12.792969 1.292969 12.640625 C 1.117188 12.21875 1.121094 11.957031 1.105469 11.550781 C 1.023438 9.101562 0.980469 6.960938 1.359375 4.832031 C 1.390625 4.519531 1.511719 4.195312 1.636719 3.925781 C 1.84375 3.601562 2.160156 3.554688 2.476562 3.46875 C 6.554688 2.339844 10.542969 1.496094 14.300781 1.496094 C 16.140625 1.5625 18.074219 1.746094 19.605469 2.148438 Z M 5.523438 6.296875 C 4.960938 6.96875 5.019531 7.882812 5.453125 8.496094 C 5.679688 8.816406 6.03125 9.074219 6.460938 9.132812 C 7.023438 9.179688 7.375 8.953125 7.757812 8.691406 C 8.453125 8.089844 8.523438 7.039062 7.996094 6.277344 C 7.726562 5.890625 7.296875 5.65625 6.859375 5.640625 C 6.257812 5.648438 5.851562 5.914062 5.523438 6.296875 Z M 11.601562 5.746094 C 11.039062 5.765625 10.585938 6.152344 10.3125 6.570312 C 9.996094 7.050781 9.8125 7.648438 10.066406 8.234375 C 10.558594 9.367188 12.257812 9.351562 12.9375 8.203125 C 13.25 7.675781 13.167969 7.074219 12.9375 6.636719 C 12.703125 6.199219 12.355469 5.84375 11.84375 5.761719 C 11.761719 5.75 11.683594 5.746094 11.601562 5.746094 Z M 16.53125 5.851562 C 16.359375 5.847656 16.179688 5.867188 16.011719 5.910156 C 15.339844 6.089844 14.765625 6.785156 14.851562 7.671875 C 14.898438 8.121094 15.101562 8.554688 15.472656 8.855469 C 15.84375 9.15625 16.382812 9.289062 16.949219 9.175781 C 17.601562 9.042969 18.003906 8.515625 18.140625 8.007812 C 18.273438 7.5 18.242188 6.984375 17.925781 6.5625 C 17.597656 6.125 17.082031 5.863281 16.535156 5.851562 Z M 6.8125 6.6875 C 6.9375 6.6875 7.039062 6.726562 7.140625 6.875 C 7.367188 7.203125 7.304688 7.703125 7.074219 7.902344 C 6.84375 8.101562 6.703125 8.117188 6.601562 8.105469 C 6.5 8.089844 6.398438 8.023438 6.308594 7.894531 C 6.132812 7.648438 6.082031 7.25 6.3125 6.964844 C 6.433594 6.804688 6.65625 6.703125 6.8125 6.6875 Z M 11.671875 6.800781 C 11.691406 6.804688 11.910156 6.929688 12.015625 7.125 C 12.121094 7.324219 12.140625 7.503906 12.039062 7.671875 C 11.746094 8.171875 11.117188 8.039062 11.019531 7.820312 C 10.984375 7.738281 11.011719 7.402344 11.183594 7.144531 C 11.355469 6.882812 11.570312 6.785156 11.671875 6.800781 Z M 17.085938 7.183594 C 17.117188 7.226562 17.195312 7.511719 17.136719 7.738281 C 17.074219 7.964844 16.976562 8.105469 16.738281 8.15625 C 16.429688 8.21875 16.253906 8.15625 16.125 8.046875 C 15.996094 7.941406 15.90625 7.765625 15.886719 7.574219 C 15.84375 7.101562 16.011719 6.992188 16.28125 6.921875 C 16.59375 6.84375 16.945312 6.980469 17.085938 7.183594 Z M 17.085938 7.183594 "/>
<path style=" stroke:none;fill-rule:nonzero;fill:rgb(0%,14.509804%,18.039216%);fill-opacity:1;" d="M 29.523438 2.5625 C 29.535156 2.429688 29.582031 2.308594 29.671875 2.203125 C 29.761719 2.097656 29.894531 2.039062 30.03125 2.042969 L 33.53125 2.042969 C 33.648438 2.042969 33.769531 2.09375 33.894531 2.191406 C 34.015625 2.277344 34.085938 2.414062 34.082031 2.5625 L 34.082031 8.148438 L 39.9375 8.148438 L 39.9375 2.5625 C 39.9375 2.421875 39.984375 2.300781 40.082031 2.195312 C 40.183594 2.09375 40.308594 2.042969 40.464844 2.042969 L 43.917969 2.042969 C 44.074219 2.042969 44.210938 2.082031 44.328125 2.160156 C 44.449219 2.238281 44.507812 2.367188 44.507812 2.539062 L 44.507812 19.027344 C 44.507812 19.199219 44.457031 19.328125 44.351562 19.414062 C 44.25 19.5 44.117188 19.542969 43.953125 19.542969 L 40.464844 19.542969 C 40.308594 19.542969 40.183594 19.5 40.082031 19.414062 C 39.984375 19.328125 39.9375 19.199219 39.9375 19.027344 L 39.9375 12.332031 L 34.082031 12.332031 L 34.082031 19.027344 C 34.082031 19.191406 34.03125 19.316406 33.925781 19.410156 C 33.816406 19.5 33.675781 19.542969 33.492188 19.542969 L 30.03125 19.542969 C 29.703125 19.542969 29.535156 19.390625 29.523438 19.085938 Z M 61.75 19.34375 C 61.648438 19.429688 61.539062 19.484375 61.425781 19.507812 C 61.320312 19.53125 61.210938 19.542969 61.101562 19.542969 L 59.324219 19.542969 C 59.179688 19.542969 59.058594 19.519531 58.957031 19.46875 C 58.855469 19.417969 58.769531 19.347656 58.699219 19.261719 C 58.625 19.171875 58.566406 19.074219 58.523438 18.964844 C 58.472656 18.855469 58.433594 18.742188 58.402344 18.625 L 58.039062 17.117188 C 57.921875 17.359375 57.75 17.636719 57.527344 17.945312 C 57.285156 18.277344 56.996094 18.570312 56.671875 18.820312 C 56.328125 19.089844 55.914062 19.320312 55.4375 19.503906 C 54.957031 19.6875 54.40625 19.78125 53.785156 19.78125 C 52.890625 19.78125 52.078125 19.605469 51.347656 19.261719 C 50.632812 18.925781 49.996094 18.445312 49.480469 17.847656 C 48.96875 17.25 48.570312 16.554688 48.289062 15.753906 C 48.003906 14.957031 47.863281 14.105469 47.863281 13.203125 L 47.863281 5.484375 C 47.863281 5.1875 47.929688 4.960938 48.058594 4.808594 C 48.1875 4.652344 48.394531 4.578125 48.675781 4.578125 L 51.394531 4.578125 C 51.734375 4.578125 51.964844 4.632812 52.089844 4.75 C 52.214844 4.863281 52.28125 5.085938 52.28125 5.414062 L 52.28125 13.085938 C 52.28125 13.425781 52.355469 13.742188 52.507812 14.046875 C 52.664062 14.347656 52.863281 14.617188 53.117188 14.847656 C 53.367188 15.078125 53.652344 15.261719 53.96875 15.394531 C 54.289062 15.527344 54.613281 15.597656 54.941406 15.597656 C 55.222656 15.597656 55.515625 15.527344 55.820312 15.394531 C 56.125 15.261719 56.40625 15.078125 56.65625 14.859375 C 56.910156 14.636719 57.121094 14.371094 57.285156 14.070312 C 57.449219 13.765625 57.53125 13.445312 57.53125 13.109375 L 57.53125 5.449219 C 57.53125 5.316406 57.558594 5.183594 57.609375 5.046875 C 57.660156 4.914062 57.738281 4.8125 57.839844 4.742188 C 57.941406 4.679688 58.035156 4.636719 58.128906 4.613281 C 58.21875 4.589844 58.320312 4.578125 58.4375 4.578125 L 61.101562 4.578125 C 61.4375 4.578125 61.683594 4.660156 61.832031 4.824219 C 61.980469 4.988281 62.054688 5.210938 62.054688 5.484375 L 62.054688 18.671875 C 62.054688 18.820312 62.023438 18.957031 61.957031 19.085938 C 61.886719 19.210938 61.796875 19.308594 61.679688 19.378906 Z M 75.421875 17.71875 C 75.210938 17.929688 74.976562 18.15625 74.722656 18.402344 C 74.464844 18.644531 74.1875 18.871094 73.878906 19.085938 C 73.570312 19.296875 73.238281 19.472656 72.890625 19.609375 C 72.527344 19.75 72.136719 19.820312 71.746094 19.816406 C 70.679688 19.816406 69.695312 19.617188 68.796875 19.214844 C 67.921875 18.828125 67.132812 18.269531 66.476562 17.570312 C 65.828125 16.875 65.324219 16.054688 64.957031 15.113281 C 64.59375 14.171875 64.410156 13.15625 64.410156 12.074219 C 64.410156 10.980469 64.59375 9.964844 64.957031 9.027344 C 65.324219 8.085938 65.828125 7.269531 66.476562 6.574219 C 67.128906 5.875 67.921875 5.316406 68.796875 4.9375 C 69.695312 4.539062 70.679688 4.339844 71.746094 4.339844 C 72.179688 4.339844 72.574219 4.40625 72.933594 4.53125 C 73.277344 4.648438 73.605469 4.8125 73.910156 5.011719 C 74.203125 5.210938 74.472656 5.433594 74.722656 5.679688 C 74.96875 5.925781 75.203125 6.167969 75.421875 6.402344 L 75.421875 1.019531 C 75.421875 0.765625 75.5 0.554688 75.652344 0.382812 C 75.804688 0.207031 76.035156 0.121094 76.339844 0.121094 L 78.992188 0.121094 C 79.09375 0.121094 79.203125 0.144531 79.316406 0.1875 C 79.429688 0.230469 79.53125 0.292969 79.628906 0.371094 C 79.722656 0.449219 79.796875 0.542969 79.855469 0.652344 C 79.914062 0.761719 79.945312 0.882812 79.945312 1.019531 L 79.945312 18.636719 C 79.945312 19.242188 79.628906 19.542969 78.992188 19.542969 L 76.683594 19.542969 C 76.527344 19.542969 76.402344 19.523438 76.316406 19.484375 C 76.230469 19.445312 76.15625 19.386719 76.097656 19.3125 C 76.035156 19.226562 75.980469 19.132812 75.941406 19.03125 C 75.886719 18.898438 75.828125 18.765625 75.765625 18.636719 Z M 68.652344 12.074219 C 68.644531 12.566406 68.726562 13.058594 68.890625 13.527344 C 69.050781 13.980469 69.28125 14.371094 69.582031 14.699219 C 69.882812 15.03125 70.25 15.300781 70.660156 15.484375 C 71.078125 15.675781 71.542969 15.773438 72.054688 15.773438 C 72.558594 15.773438 73.03125 15.683594 73.472656 15.503906 C 73.90625 15.328125 74.296875 15.074219 74.632812 14.753906 C 74.964844 14.429688 75.234375 14.050781 75.429688 13.628906 C 75.628906 13.195312 75.742188 12.730469 75.765625 12.238281 L 75.765625 12.074219 C 75.765625 11.578125 75.671875 11.089844 75.480469 10.636719 C 75.300781 10.1875 75.03125 9.78125 74.699219 9.433594 C 74.363281 9.085938 73.960938 8.808594 73.519531 8.613281 C 73.058594 8.410156 72.558594 8.308594 72.054688 8.3125 C 71.542969 8.3125 71.078125 8.414062 70.660156 8.613281 C 70.238281 8.8125 69.878906 9.085938 69.582031 9.433594 C 69.277344 9.785156 69.042969 10.195312 68.890625 10.636719 C 68.730469 11.097656 68.648438 11.582031 68.652344 12.074219 Z M 93.621094 17.71875 C 93.40625 17.929688 93.171875 18.15625 92.917969 18.402344 C 92.664062 18.644531 92.382812 18.871094 92.078125 19.085938 C 91.769531 19.296875 91.4375 19.472656 91.085938 19.609375 C 90.722656 19.75 90.335938 19.820312 89.945312 19.816406 C 88.875 19.816406 87.894531 19.617188 86.996094 19.214844 C 86.117188 18.828125 85.328125 18.269531 84.671875 17.570312 C 84.027344 16.875 83.519531 16.054688 83.15625 15.113281 C 82.789062 14.171875 82.605469 13.15625 82.605469 12.074219 C 82.605469 10.980469 82.789062 9.964844 83.15625 9.027344 C 83.519531 8.085938 84.027344 7.269531 84.671875 6.574219 C 85.328125 5.875 86.117188 5.316406 86.996094 4.9375 C 87.894531 4.539062 88.875 4.339844 89.945312 4.339844 C 90.375 4.339844 90.769531 4.40625 91.128906 4.53125 C 91.472656 4.648438 91.800781 4.8125 92.105469 5.011719 C 92.398438 5.210938 92.671875 5.433594 92.917969 5.679688 C 93.164062 5.925781 93.398438 6.167969 93.617188 6.402344 L 93.617188 1.019531 C 93.617188 0.765625 93.695312 0.554688 93.847656 0.382812 C 94.003906 0.207031 94.230469 0.121094 94.539062 0.121094 L 97.1875 0.121094 C 97.289062 0.121094 97.398438 0.144531 97.511719 0.1875 C 97.625 0.230469 97.730469 0.292969 97.824219 0.371094 C 97.917969 0.449219 97.996094 0.542969 98.054688 0.652344 C 98.113281 0.761719 98.140625 0.882812 98.140625 1.019531 L 98.140625 18.636719 C 98.140625 19.242188 97.824219 19.542969 97.1875 19.542969 L 94.878906 19.542969 C 94.722656 19.542969 94.601562 19.523438 94.515625 19.484375 C 94.429688 19.445312 94.355469 19.386719 94.296875 19.3125 C 94.230469 19.226562 94.175781 19.132812 94.136719 19.03125 C 94.082031 18.898438 94.023438 18.765625 93.960938 18.636719 L 93.617188 17.71875 Z M 86.847656 12.074219 C 86.84375 12.566406 86.925781 13.058594 87.089844 13.527344 C 87.25 13.980469 87.480469 14.371094 87.777344 14.699219 C 88.078125 15.03125 88.445312 15.300781 88.855469 15.484375 C 89.277344 15.675781 89.742188 15.773438 90.25 15.773438 C 90.753906 15.773438 91.226562 15.683594 91.667969 15.503906 C 92.101562 15.328125 92.496094 15.074219 92.832031 14.753906 C 93.164062 14.429688 93.433594 14.050781 93.625 13.628906 C 93.824219 13.195312 93.9375 12.730469 93.960938 12.238281 L 93.960938 12.074219 C 93.960938 11.578125 93.867188 11.089844 93.679688 10.636719 C 93.496094 10.1875 93.230469 9.78125 92.894531 9.433594 C 92.558594 9.085938 92.160156 8.808594 91.71875 8.613281 C 91.253906 8.410156 90.753906 8.308594 90.25 8.3125 C 89.742188 8.3125 89.273438 8.414062 88.855469 8.613281 C 88.433594 8.8125 88.074219 9.085938 87.777344 9.433594 C 87.472656 9.785156 87.242188 10.195312 87.089844 10.636719 C 86.925781 11.097656 86.84375 11.582031 86.847656 12.074219 Z M 101.273438 1.03125 C 101.273438 0.777344 101.335938 0.566406 101.464844 0.394531 C 101.589844 0.21875 101.804688 0.132812 102.109375 0.132812 L 104.996094 0.132812 C 105.074219 0.132812 105.15625 0.15625 105.242188 0.199219 C 105.335938 0.246094 105.417969 0.308594 105.484375 0.382812 C 105.558594 0.460938 105.621094 0.554688 105.675781 0.664062 C 105.726562 0.773438 105.75 0.894531 105.75 1.03125 L 105.75 18.636719 C 105.75 18.933594 105.667969 19.160156 105.496094 19.3125 C 105.328125 19.46875 105.109375 19.542969 104.84375 19.542969 L 102.109375 19.542969 C 101.804688 19.542969 101.589844 19.46875 101.464844 19.3125 C 101.335938 19.160156 101.273438 18.933594 101.273438 18.636719 Z M 121.109375 17.753906 C 120.425781 18.382812 119.636719 18.890625 118.777344 19.242188 C 117.90625 19.601562 116.972656 19.785156 116.03125 19.78125 C 114.957031 19.78125 113.941406 19.582031 112.980469 19.191406 C 112.046875 18.8125 111.191406 18.257812 110.460938 17.558594 C 109.734375 16.859375 109.152344 16.023438 108.742188 15.101562 C 108.316406 14.160156 108.105469 13.132812 108.105469 12.023438 C 108.105469 11.332031 108.191406 10.664062 108.359375 10.015625 C 108.523438 9.382812 108.765625 8.769531 109.078125 8.195312 C 109.386719 7.628906 109.769531 7.105469 110.207031 6.632812 C 110.648438 6.160156 111.148438 5.75 111.699219 5.414062 C 112.257812 5.070312 112.859375 4.804688 113.488281 4.625 C 114.152344 4.433594 114.835938 4.339844 115.527344 4.339844 C 116.175781 4.339844 116.808594 4.429688 117.421875 4.601562 C 118.035156 4.773438 118.609375 5.015625 119.148438 5.332031 C 119.6875 5.644531 120.175781 6.023438 120.625 6.464844 C 121.066406 6.894531 121.453125 7.378906 121.78125 7.90625 C 122.101562 8.429688 122.351562 8.992188 122.527344 9.578125 C 122.703125 10.171875 122.792969 10.785156 122.792969 11.414062 C 122.792969 11.820312 122.785156 12.15625 122.773438 12.414062 C 122.761719 12.671875 122.703125 12.878906 122.59375 13.03125 C 122.480469 13.1875 122.300781 13.292969 122.042969 13.351562 C 121.789062 13.410156 121.414062 13.441406 120.921875 13.441406 L 112.441406 13.441406 C 112.519531 13.941406 112.679688 14.363281 112.917969 14.699219 C 113.140625 15.019531 113.421875 15.296875 113.746094 15.507812 C 114.0625 15.707031 114.394531 15.851562 114.75 15.9375 C 115.074219 16.019531 115.410156 16.066406 115.75 16.066406 C 116.03125 16.066406 116.324219 16.039062 116.621094 15.980469 C 116.914062 15.921875 117.203125 15.84375 117.488281 15.742188 C 117.75 15.652344 118.007812 15.539062 118.253906 15.402344 C 118.484375 15.273438 118.671875 15.136719 118.8125 14.996094 C 118.9375 14.894531 119.046875 14.816406 119.136719 14.765625 C 119.226562 14.714844 119.324219 14.6875 119.425781 14.6875 C 119.527344 14.6875 119.628906 14.726562 119.738281 14.792969 C 119.867188 14.886719 119.984375 14.988281 120.09375 15.101562 L 121.34375 16.515625 C 121.429688 16.617188 121.484375 16.710938 121.507812 16.792969 C 121.53125 16.875 121.542969 16.960938 121.542969 17.046875 C 121.542969 17.203125 121.5 17.339844 121.414062 17.453125 C 121.328125 17.566406 121.222656 17.667969 121.109375 17.753906 Z M 115.445312 7.9375 C 115.136719 7.9375 114.839844 7.996094 114.554688 8.117188 C 114.265625 8.242188 113.992188 8.40625 113.746094 8.609375 C 113.496094 8.8125 113.269531 9.042969 113.070312 9.304688 C 112.878906 9.546875 112.714844 9.8125 112.582031 10.09375 L 118.601562 10.09375 C 118.441406 9.796875 118.261719 9.515625 118.0625 9.242188 C 117.875 8.988281 117.652344 8.757812 117.40625 8.558594 C 117.148438 8.359375 116.863281 8.203125 116.554688 8.101562 C 116.238281 7.992188 115.867188 7.9375 115.445312 7.9375 Z M 115.445312 7.9375 "/>
</g>
</svg>
