<svg xmlns="http://www.w3.org/2000/svg" width="46.95" height="46.95" style=""><rect id="backgroundrect" width="100%" height="100%" x="0" y="0" fill="none" stroke="none"/><g class="currentLayer" style=""><title>Layer 1</title><g data-name="Layer 2" id="svg_1" class="selected" fill="#f2ffff" fill-opacity="1" stroke="#dadada" stroke-opacity="1"><g data-name="Layer 1" id="svg_2" fill="#f2ffff" fill-opacity="1" stroke="#dadada" stroke-opacity="1"><path d="M35.9 8.38a2.76 2.76 0 102.75 2.75A2.75 2.75 0 0035.9 8.38zM23.67 11.91A11.57 11.57 0 1035.23 23.47 11.58 11.58 0 0023.67 11.91zm0 19a7.41 7.41 0 117.4-7.41A7.41 7.41 0 0123.67 30.88z" id="svg_3" fill="#f2ffff" fill-opacity="1" stroke="#dadada" stroke-opacity="1"/><path d="M32.84,47H14.1A14.12,14.12,0,0,1,0,32.85V14.1A14.12,14.12,0,0,1,14.1,0H32.84A14.12,14.12,0,0,1,47,14.1V32.85A14.12,14.12,0,0,1,32.84,47ZM14.1,4.42A9.69,9.69,0,0,0,4.42,14.1V32.85a9.69,9.69,0,0,0,9.68,9.68H32.84a9.69,9.69,0,0,0,9.69-9.68V14.1a9.69,9.69,0,0,0-9.69-9.68Z" id="svg_4" fill="#f2ffff" fill-opacity="1" stroke="#dadada" stroke-opacity="1"/></g></g></g></svg>