<svg xmlns="http://www.w3.org/2000/svg" width="51.76" height="42.6" style=""><rect id="backgroundrect" width="100%" height="100%" x="0" y="0" fill="none" stroke="none"/><g class="currentLayer" style=""><title>Layer 1</title><g data-name="Layer 2" id="svg_1" class="selected" fill-opacity="1" fill="#f2ffff"><path d="M51.55,5.11A21.52,21.52,0,0,1,46.31,6.6c.85-.14,2.08-1.67,2.58-2.28a9.82,9.82,0,0,0,1.74-3.17c0-.09.08-.2,0-.27a.26.26,0,0,0-.27,0,26.54,26.54,0,0,1-6.21,2.37.42.42,0,0,1-.43-.11,5.64,5.64,0,0,0-.54-.55,11.25,11.25,0,0,0-3-1.85A10.51,10.51,0,0,0,35.54,0a11,11,0,0,0-4.37,1.24,11.19,11.19,0,0,0-3.53,2.88,10.83,10.83,0,0,0-2.11,4.22,11.55,11.55,0,0,0-.11,4.46c0,.25,0,.28-.21.25C16.68,11.8,9.62,8.75,3.88,2.21c-.25-.28-.38-.28-.59,0C.78,6,2,12,5.13,15c.42.4.85.79,1.31,1.15A10.79,10.79,0,0,1,2.33,15c-.25-.16-.37-.07-.4.22A7.37,7.37,0,0,0,2,16.45a10.94,10.94,0,0,0,6.74,8.72,6.55,6.55,0,0,0,1.37.41,12.33,12.33,0,0,1-4,.13c-.29-.06-.4.09-.29.37,1.77,4.84,5.61,6.28,8.48,7.1.38.07.77.07,1.15.16,0,0,0,0-.07.07-.95,1.45-4.25,2.53-5.79,3.07A20.53,20.53,0,0,1,.76,37.6c-.48-.07-.57-.06-.7,0s0,.2.13.32c.6.4,1.21.75,1.83,1.09A29.83,29.83,0,0,0,7.9,41.36c10.57,2.92,22.47.77,30.41-7.11,6.23-6.19,8.41-14.73,8.41-23.28,0-.33.4-.51.63-.69A20.84,20.84,0,0,0,51.49,6a1.32,1.32,0,0,0,.27-.83v0C51.76,5,51.76,5,51.55,5.11Z" data-name="Layer 1" id="svg_2" fill="#f2ffff"/></g></g></svg>